<svg xmlns="http://www.w3.org/2000/svg" width="430" height="430" fill="none" viewBox="0 0 430 430"><circle cx="215" cy="215" r="167.5" fill="#0a2e5c"/><path fill="#0a2e5c" d="M298.007 360.518c-15.208 4.542-31.323 6.981-48.007 6.981-92.508 0-167.5-74.992-167.5-167.5 0-62.305 34.018-116.664 84.493-145.518C97.881 75.12 47.5 139.176 47.5 214.999c0 92.508 74.992 167.5 167.5 167.5 30.203 0 58.538-7.993 83.007-21.981" opacity=".5" style="mix-blend-mode:multiply"/><path fill="#f4c89c" d="m110 245 70-90 70 50 70-25-70 90-70-50z"/><path fill="#f4c89c" d="m110 245 70-90 35 25v65l-35-25z" opacity=".5" style="mix-blend-mode:multiply"/><path stroke="#fff" stroke-linejoin="round" stroke-width="10.5" d="m110 245 70-90 70 50 70-25-70 90-70-50z"/><circle cx="215" cy="215" r="167.5" stroke="#fff" stroke-width="10.5"/></svg>